<svg xmlns="http://www.w3.org/2000/svg" width="129.804" height="135.551" viewBox="0 0 129.804 135.551">
  <g id="Group_21" data-name="Group 21" transform="translate(-209 -110.995)">
    <g id="Group_22" data-name="Group 22" transform="translate(179 91)">
      <path id="Path_19" data-name="Path 19" d="M32.3,155.544H47.79a2.233,2.233,0,0,0,2.313-2.2V147.5h89.6v5.837a2.233,2.233,0,0,0,2.313,2.2h15.492a2.22,2.22,0,0,0,2.3-2.2V136.886a2.3,2.3,0,0,0-2.3-2.306H152.05V40.96h5.456a2.3,2.3,0,0,0,2.3-2.306V22.2a2.22,2.22,0,0,0-2.3-2.2H142.015a2.233,2.233,0,0,0-2.313,2.2v5.837H50.1V22.2A2.233,2.233,0,0,0,47.79,20H32.3A2.22,2.22,0,0,0,30,22.2V38.654a2.3,2.3,0,0,0,2.3,2.306h5.456v93.62H32.3a2.3,2.3,0,0,0-2.3,2.306V153.34a2.22,2.22,0,0,0,2.3,2.2Zm122.912-4.595H144.3V139.175h10.913ZM144.3,24.591h10.913V36.366H144.3Zm-109.7,0H45.508V36.366H34.595ZM42.349,40.96H47.79A2.318,2.318,0,0,0,50.1,38.654V32.632h89.6v6.022a2.318,2.318,0,0,0,2.313,2.306h5.441v93.62h-5.441a2.318,2.318,0,0,0-2.313,2.306v6.022H50.1v-6.022a2.318,2.318,0,0,0-2.313-2.306H42.349Zm-7.754,98.215H45.508v11.774H34.595Z" fill="#fff"/>
      <path id="Path_20" data-name="Path 20" d="M162.318,160.381h-2.559a2.3,2.3,0,1,0,0,4.595h3.831l3.969,14.372a2.32,2.32,0,0,0,2.214,1.71h29.045a2.32,2.32,0,0,0,2.225-1.752l3.677-14.33h3.2a2.3,2.3,0,1,0,0-4.595H205.9l6.943-26.991a2.258,2.258,0,0,0-.195-1.632L185.872,81.18a2.3,2.3,0,0,0-4.061.005l-26.773,50.586a2.225,2.225,0,0,0-.184,1.659Zm34.717,16.082H171.522l-3.164-11.487h31.618ZM183.842,122.5a4.056,4.056,0,1,1-4.056,4.056A4.056,4.056,0,0,1,183.842,122.5Zm-2.3-30.984v26.7a8.651,8.651,0,1,0,4.595,0v-26.7l22.031,41.594-7.015,27.274H167.086l-7.561-27.3Z" transform="translate(-88.939 -42.745)" fill="#fff"/>
    </g>
  </g>
</svg>
