<svg xmlns="http://www.w3.org/2000/svg" width="99.659" height="135" viewBox="0 0 99.659 135">
  <g id="Group_20" data-name="Group 20" transform="translate(-426.585 -660)">
    <g id="Rectangle_26" data-name="Rectangle 26" transform="translate(440 660)" fill="#fff" stroke="#707070" stroke-width="1">
      <rect width="72" height="135" rx="14" stroke="none"/>
      <rect x="0.5" y="0.5" width="71" height="134" rx="13.5" fill="none"/>
    </g>
    <line id="Line_2" data-name="Line 2" x2="70.435" transform="translate(440.683 686.902)" fill="none" stroke="#707070" stroke-width="1"/>
    <g id="Ellipse_15" data-name="Ellipse 15" transform="translate(472 779)" fill="#fff" stroke="#707070" stroke-width="1">
      <ellipse cx="3.5" cy="4" rx="3.5" ry="4" stroke="none"/>
      <ellipse cx="3.5" cy="4" rx="3" ry="3.5" fill="none"/>
    </g>
    <g id="Ellipse_16" data-name="Ellipse 16" transform="translate(451 671)" fill="#fff" stroke="#707070" stroke-width="1">
      <circle cx="1.5" cy="1.5" r="1.5" stroke="none"/>
      <circle cx="1.5" cy="1.5" r="1" fill="none"/>
    </g>
    <g id="Rectangle_27" data-name="Rectangle 27" transform="translate(466 671)" fill="#fff" stroke="#707070" stroke-width="1">
      <rect width="20" height="3" rx="1.5" stroke="none"/>
      <rect x="0.5" y="0.5" width="19" height="2" rx="1" fill="none"/>
    </g>
    <path id="Path_15" data-name="Path 15" d="M-867.5,1727.156h70.452" transform="translate(1308.183 -953.963)" fill="#fff" stroke="#707070" stroke-width="1"/>
    <g id="Group_19" data-name="Group 19" transform="translate(426.585 716.943)">
      <g id="Union_5" data-name="Union 5" fill="#fff">
        <path d="M 35.70700073242188 37.78696441650391 L 28.80483055114746 30.80294036865234 L 28.65804100036621 30.65439987182617 L 28.4492015838623 30.65439987182617 L 5.000401020050049 30.65439987182617 C 2.518870830535889 30.65439987182617 0.5000008344650269 28.63553047180176 0.5000008344650269 26.15399932861328 L 0.5000008344650269 5.000400066375732 C 0.5000008344650269 2.518869876861572 2.518870830535889 0.5 5.000401020050049 0.5 L 43.55910110473633 0.5 C 46.04063034057617 0.5 48.05950164794922 2.518869876861572 48.05950164794922 5.000400066375732 L 48.05950164794922 26.15399932861328 C 48.05950164794922 28.63553047180176 46.04063034057617 30.65439987182617 43.55910110473633 30.65439987182617 L 36.20700073242188 30.65439987182617 L 35.70700073242188 30.65439987182617 L 35.70700073242188 31.15439987182617 L 35.70700073242188 37.78696441650391 Z" stroke="none"/>
        <path d="M 35.20700073242188 36.56971740722656 L 35.20700073242188 31.15439987182617 L 35.20700073242188 30.15439987182617 L 36.20700073242188 30.15439987182617 L 43.55910110473633 30.15439987182617 C 45.76493072509766 30.15439987182617 47.55950164794922 28.35983085632324 47.55950164794922 26.15399932861328 L 47.55950164794922 5.000400066375732 C 47.55950164794922 2.794569969177246 45.76493072509766 1 43.55910110473633 1 L 5.000401020050049 1 C 2.794570922851563 1 1.000000834465027 2.794569969177246 1.000000834465027 5.000400066375732 L 1.000000834465027 26.15399932861328 C 1.000000834465027 28.35983085632324 2.794570922851563 30.15439987182617 5.000401020050049 30.15439987182617 L 28.4492015838623 30.15439987182617 L 28.86687088012695 30.15439987182617 L 29.16046142578125 30.45146942138672 L 35.20700073242188 36.56971740722656 M 36.20700073242188 39.00419998168945 L 28.4492015838623 31.15439987182617 L 5.000401020050049 31.15439987182617 C 2.238300800323486 31.15439987182617 8.239746307481255e-07 28.91519927978516 8.239746307481255e-07 26.15399932861328 L 8.239746307481255e-07 5.000400066375732 C 8.239746307481255e-07 2.238300085067749 2.238300800323486 -9.155275648708994e-09 5.000401020050049 -9.155275648708994e-09 L 43.55910110473633 -9.155275648708994e-09 C 46.3203010559082 -9.155275648708994e-09 48.55950164794922 2.238300085067749 48.55950164794922 5.000400066375732 L 48.55950164794922 26.15399932861328 C 48.55950164794922 28.91519927978516 46.3203010559082 31.15439987182617 43.55910110473633 31.15439987182617 L 36.20700073242188 31.15439987182617 L 36.20700073242188 39.00419998168945 Z" stroke="none" fill="#707070"/>
      </g>
      <g id="Group_18" data-name="Group 18" transform="translate(11.688 7.927)">
        <g id="Ellipse_19" data-name="Ellipse 19" transform="translate(-0.274 5.131)" fill="#fff" stroke="#707070" stroke-width="1">
          <circle cx="2" cy="2" r="2" stroke="none"/>
          <circle cx="2" cy="2" r="1.5" fill="none"/>
        </g>
        <g id="Ellipse_17" data-name="Ellipse 17" transform="translate(7.726 0.131)" fill="#fff" stroke="#707070" stroke-width="1">
          <ellipse cx="2" cy="2.5" rx="2" ry="2.5" stroke="none"/>
          <ellipse cx="2" cy="2.5" rx="1.5" ry="2" fill="none"/>
        </g>
        <g id="Ellipse_18" data-name="Ellipse 18" transform="translate(8.726 9.131)" fill="#fff" stroke="#707070" stroke-width="1">
          <circle cx="2" cy="2" r="2" stroke="none"/>
          <circle cx="2" cy="2" r="1.5" fill="none"/>
        </g>
        <path id="Path_17" data-name="Path 17" d="M0,0,6.288.881" transform="translate(4.108 7.447) rotate(20)" fill="#fff" stroke="#707070" stroke-width="1"/>
        <path id="Path_18" data-name="Path 18" d="M24.989,26.5l4.47-3.438" transform="translate(-20.669 -20.405)" fill="#fff" stroke="#707070" stroke-width="1"/>
      </g>
    </g>
    <g id="Group_17" data-name="Group 17" transform="translate(480.108 695.008)">
      <g id="Union_4" data-name="Union 4" transform="translate(46.137 37.058) rotate(180)" fill="#fff" stroke-linejoin="round">
        <path d="M 41.13629913330078 36.55839920043945 L 5.000400066375732 36.55839920043945 C 2.518869876861572 36.55839920043945 0.4999998509883881 34.53952789306641 0.4999998509883881 32.05799865722656 L 0.4999998509883881 12.45779991149902 C 0.4999998509883881 9.97676944732666 2.518869876861572 7.95829963684082 5.000400066375732 7.95829963684082 L 27.02924919128418 7.95829963684082 L 27.23806953430176 7.95829963684082 L 27.3848705291748 7.809779644012451 L 33.90069961547852 1.217180490493774 L 33.90069961547852 7.45829963684082 L 33.90069961547852 7.95829963684082 L 34.40069961547852 7.95829963684082 L 41.13629913330078 7.95829963684082 C 43.61782836914063 7.95829963684082 45.63669967651367 9.97676944732666 45.63669967651367 12.45779991149902 L 45.63669967651367 32.05799865722656 C 45.63669967651367 34.53952789306641 43.61782836914063 36.55839920043945 41.13629913330078 36.55839920043945 Z" stroke="none"/>
        <path d="M 41.13629913330078 36.05839920043945 C 43.34212875366211 36.05839920043945 45.13669967651367 34.26382827758789 45.13669967651367 32.05799865722656 L 45.13669967651367 12.45779991149902 C 45.13669967651367 10.25247001647949 43.34212875366211 8.45829963684082 41.13629913330078 8.45829963684082 L 34.40069961547852 8.45829963684082 C 33.84841918945313 8.45829963684082 33.40069961547852 8.010580062866211 33.40069961547852 7.45829963684082 L 33.40069961547852 2.434351444244385 L 27.7404899597168 8.161249160766602 C 27.55261993408203 8.351329803466797 27.29649925231934 8.45829963684082 27.02924919128418 8.45829963684082 L 5.000400066375732 8.45829963684082 C 2.794569730758667 8.45829963684082 0.9999998211860657 10.25247001647949 0.9999998211860657 12.45779991149902 L 0.9999998211860657 32.05799865722656 C 0.9999998211860657 34.26382827758789 2.794569730758667 36.05839920043945 5.000400066375732 36.05839920043945 L 41.13629913330078 36.05839920043945 M 41.13629913330078 37.05839920043945 L 5.000400066375732 37.05839920043945 C 2.23829984664917 37.05839920043945 -1.617431735212449e-07 34.81919860839844 -1.617431735212449e-07 32.05799865722656 L -1.617431735212449e-07 12.45779991149902 C -1.617431735212449e-07 9.696599960327148 2.23829984664917 7.45829963684082 5.000400066375732 7.45829963684082 L 27.02924919128418 7.45829963684082 L 34.40069961547852 -3.997802764388325e-07 L 34.40069961547852 7.45829963684082 L 41.13629913330078 7.45829963684082 C 43.89839935302734 7.45829963684082 46.13669967651367 9.696599960327148 46.13669967651367 12.45779991149902 L 46.13669967651367 32.05799865722656 C 46.13669967651367 34.81919860839844 43.89839935302734 37.05839920043945 41.13629913330078 37.05839920043945 Z" stroke="none" fill="#707070"/>
      </g>
      <path id="Icon_ionic-ios-heart-empty" data-name="Icon ionic-ios-heart-empty" d="M11.793,3.938h-.028A3.1,3.1,0,0,0,9.135,5.488,3.1,3.1,0,0,0,6.5,3.938H6.476a3.26,3.26,0,0,0-3.1,3.37A7.622,7.622,0,0,0,4.7,11.264a23.99,23.99,0,0,0,4.436,4.6,23.99,23.99,0,0,0,4.436-4.6,7.622,7.622,0,0,0,1.324-3.957A3.26,3.26,0,0,0,11.793,3.938Zm1.152,6.835a22.068,22.068,0,0,1-3.81,4.044,22.1,22.1,0,0,1-3.81-4.047A6.755,6.755,0,0,1,4.15,7.307a2.626,2.626,0,0,1,.681-1.783,2.259,2.259,0,0,1,1.65-.748h.025A2.194,2.194,0,0,1,7.645,5.1a2.5,2.5,0,0,1,.842.85.748.748,0,0,0,1.3,0,2.528,2.528,0,0,1,.842-.85,2.194,2.194,0,0,1,1.138-.322h.025a2.264,2.264,0,0,1,1.65.748,2.618,2.618,0,0,1,.681,1.783A6.839,6.839,0,0,1,12.945,10.772Z" transform="translate(13.804 5.198)" fill="red"/>
    </g>
  </g>
</svg>
