<svg xmlns="http://www.w3.org/2000/svg" width="121.331" height="83.728" viewBox="0 0 121.331 83.728">
  <path id="rect5140" d="M0,3V85.728H120.331V3Zm7.521,7.521H112.81V33.083H7.521Zm7.521,7.521v7.521H30.083V18.041Zm22.562,0v7.521H52.645V18.041Zm48.885,0a3.76,3.76,0,1,0,3.76,3.76A3.76,3.76,0,0,0,86.488,18.041Zm15.041,0a3.76,3.76,0,1,0,3.76,3.76A3.76,3.76,0,0,0,101.529,18.041ZM7.521,40.6H112.81V72.89l-22.4-22.4L64.675,73.257l-26.954-22.4-30.2,22.65Zm45.124,7.521v7.521h7.521V48.124Zm15.041,0v7.521h7.521V48.124Zm-30.2,12.324L58.844,78.207H13.793Zm52.6.367,17.407,17.392H70.433Z" transform="translate(0.5 -2.5)" fill="#fff" stroke="#707070" stroke-width="1"/>
</svg>
